<?xml version="1.0" encoding="UTF-8"?>
<svg width="300" height="15" viewBox="0 0 300 15" xmlns="http://www.w3.org/2000/svg">
  <path d="M0,7.5 C5,3.5 10,10.5 15,7.5 C20,4.5 25,10.5 30,7.5 C35,4.5 40,10.5 45,7.5 C50,4.5 55,10.5 60,7.5 C65,4.5 70,10.5 75,7.5 C80,4.5 85,10.5 90,7.5 C95,4.5 100,10.5 105,7.5 C110,4.5 115,10.5 120,7.5 C125,4.5 130,10.5 135,7.5 C140,4.5 145,10.5 150,7.5 C155,4.5 160,10.5 165,7.5 C170,4.5 175,10.5 180,7.5 C185,4.5 190,10.5 195,7.5 C200,4.5 205,10.5 210,7.5 C215,4.5 220,10.5 225,7.5 C230,4.5 235,10.5 240,7.5 C245,4.5 250,10.5 255,7.5 C260,4.5 265,10.5 270,7.5 C275,4.5 280,10.5 285,7.5 C290,4.5 295,10.5 300,7.5" 
        fill="none" stroke="#8e44ad" stroke-width="2" stroke-linecap="round"/>
  <path d="M37.5,7.5 C40,5 45,9 47.5,7.5 M87.5,7.5 C90,5 95,9 97.5,7.5 M137.5,7.5 C140,5 145,9 147.5,7.5 M187.5,7.5 C190,5 195,9 197.5,7.5 M237.5,7.5 C240,5 245,9 247.5,7.5" 
        fill="none" stroke="#8e44ad" stroke-width="1.5" stroke-linecap="round"/>
</svg>
