<?xml version="1.0" encoding="UTF-8"?>
<svg width="300" height="10" viewBox="0 0 300 10" xmlns="http://www.w3.org/2000/svg">
  <path d="M0,5 C10,8 20,2 30,5 C40,8 50,2 60,5 C70,8 80,2 90,5 C100,8 110,2 120,5 C130,8 140,2 150,5 C160,8 170,2 180,5 C190,8 200,2 210,5 C220,8 230,2 240,5 C250,8 260,2 270,5 C280,8 290,2 300,5" 
        fill="none" stroke="#ff6b6b" stroke-width="2" stroke-linecap="round"/>
  <g fill="#ff6b6b">
    <circle cx="15" cy="5" r="2"/>
    <circle cx="45" cy="5" r="2"/>
    <circle cx="75" cy="5" r="2"/>
    <circle cx="105" cy="5" r="2"/>
    <circle cx="135" cy="5" r="2"/>
    <circle cx="165" cy="5" r="2"/>
    <circle cx="195" cy="5" r="2"/>
    <circle cx="225" cy="5" r="2"/>
    <circle cx="255" cy="5" r="2"/>
    <circle cx="285" cy="5" r="2"/>
  </g>
</svg>
