<?xml version="1.0" encoding="UTF-8"?>
<svg width="100" height="100" viewBox="0 0 100 100" xmlns="http://www.w3.org/2000/svg">
  <!-- Main flower shape -->
  <g fill="#ff9e7d" opacity="0.6">
    <path d="M50,20 C55,5 65,5 70,20 C85,25 85,35 70,40 C65,55 55,55 50,40 C35,35 35,25 50,20 Z"/>
    <path d="M50,30 C53,20 57,20 60,30 C70,33 70,37 60,40 C57,50 53,50 50,40 C40,37 40,33 50,30 Z" fill="#fff"/>
  </g>
  
  <!-- Small decorative elements -->
  <g fill="#ff6b6b" opacity="0.4">
    <circle cx="20" cy="20" r="5"/>
    <circle cx="80" cy="20" r="5"/>
    <circle cx="20" cy="80" r="5"/>
    <circle cx="80" cy="80" r="5"/>
  </g>
  
  <!-- Swirls -->
  <path d="M10,50 Q20,40 10,30 Q0,20 10,10" fill="none" stroke="#ff6b6b" stroke-width="2" opacity="0.5"/>
  <path d="M90,50 Q80,40 90,30 Q100,20 90,10" fill="none" stroke="#ff6b6b" stroke-width="2" opacity="0.5"/>
  <path d="M10,50 Q20,60 10,70 Q0,80 10,90" fill="none" stroke="#ff6b6b" stroke-width="2" opacity="0.5"/>
  <path d="M90,50 Q80,60 90,70 Q100,80 90,90" fill="none" stroke="#ff6b6b" stroke-width="2" opacity="0.5"/>
</svg>
