<?xml version="1.0" encoding="UTF-8"?>
<svg width="200" height="10" viewBox="0 0 200 10" xmlns="http://www.w3.org/2000/svg">
  <!-- Ring ceremony underline with ring motifs -->
  <path d="M0,5 C10,2 15,8 20,5 C25,2 30,8 35,5 C40,2 45,8 50,5 C55,2 60,8 65,5 C70,2 75,8 80,5 C85,2 90,8 95,5 C100,2 105,8 110,5 C115,2 120,8 125,5 C130,2 135,8 140,5 C145,2 150,8 155,5 C160,2 165,8 170,5 C175,2 180,8 185,5 C190,2 195,8 200,5" 
        stroke="#8e44ad" stroke-width="2" fill="none" stroke-linecap="round"/>
  
  <!-- Small ring decorations -->
  <circle cx="20" cy="5" r="2" fill="#9b59b6" opacity="0.7"/>
  <circle cx="60" cy="5" r="2" fill="#9b59b6" opacity="0.7"/>
  <circle cx="100" cy="5" r="2" fill="#9b59b6" opacity="0.7"/>
  <circle cx="140" cy="5" r="2" fill="#9b59b6" opacity="0.7"/>
  <circle cx="180" cy="5" r="2" fill="#9b59b6" opacity="0.7"/>
</svg>
